<?xml version="1.0" encoding="UTF-8"?>
<svg id="Capa_2" data-name="Capa 2" xmlns="http://www.w3.org/2000/svg" xmlns:xlink="http://www.w3.org/1999/xlink" viewBox="0 0 141.07 181.56">
  <defs>
    <style>
      .cls-1 {
        mask: url(#mask);
      }

      .cls-2 {
        opacity: .8;
      }

      .cls-2, .cls-3 {
        fill: #fdddde;
      }

      .cls-3 {
        opacity: .7;
      }

      .cls-4 {
        mask: url(#mask-1);
      }

      .cls-5 {
        fill: #703f27;
      }

      .cls-6 {
        fill: #cf9468;
      }

      .cls-7 {
        fill: #fff;
      }

      .cls-8 {
        fill: #fce9d0;
      }

      .cls-9 {
        opacity: .9;
      }

      .cls-10 {
        fill: #eac296;
      }

      .cls-11 {
        fill: #f88990;
      }

      .cls-12 {
        fill: url(#Degradado_sin_nombre_16);
      }

      .cls-13 {
        fill: #6c3b25;
      }

      .cls-14 {
        fill: #b1724f;
      }

      .cls-15 {
        fill: #da3e54;
      }
    </style>
    <mask id="mask" x="75.88" y="2.75" width="62.87" height="67.47" maskUnits="userSpaceOnUse">
      <path class="cls-14" d="M122.78,11.81c4.6,4.49,5.07,6.99,4.53,8.47-1.2,3.28-7.55,1.96-9.7,5.94-2.09,3.87,2.57,7.59.53,11.52-2.23,4.3-9.38,2.87-10.41,6.41-.93,3.23,4.6,5.89,3.59,9.17-1.05,3.43-7.85,3.02-8.47,6.29-.44,2.35,2.78,4.04,2.06,5.7-.93,2.15-6.93.88-7.11,1.82-.16.84,4.27,3.31,9.23,3.06,4.35-.22,8.03-2.02,9.05-3.7,22.58-36.98,21.99-32.16,22.58-36.98s-1.71-9.11-1.71-9.11l-14.17-8.58Z"/>
    </mask>
    <mask id="mask-1" x="75.88" y="1.57" width="62.06" height="67.52" maskUnits="userSpaceOnUse">
      <path class="cls-10" d="M105.97,4.14c-.11,1.25-7.05-.06-8.86,3.35-1.93,3.62,3.79,9,2.65,10.05-1.16,1.07-7.82-3.76-10.27-9.3-.47-1.06-.82-2.23-.4-3.35.7-1.84,3.07-2.48,4.41-2.82,6.02-1.53,12.59.84,12.48,2.07Z"/>
    </mask>
    <linearGradient id="Degradado_sin_nombre_16" data-name="Degradado sin nombre 16" x1="70.26" y1="87.91" x2="33.57" y2="151.46" gradientUnits="userSpaceOnUse">
      <stop offset="0" stop-color="#f5888c"/>
      <stop offset=".99" stop-color="#e5485a"/>
    </linearGradient>
  </defs>
  <g id="Layer_1" data-name="Layer 1">
    <g id="Objeto_generativo" data-name="Objeto generativo">
      <g id="cork">
        <path class="cls-6" d="M137.51,27.74c-.51,1.53-1.02,3.06-1.53,4.59-3.84,6.21-7.67,12.43-11.51,18.64-2,3.14-4,6.27-6,9.41-.96,1.18-1.93,2.36-2.89,3.54l-2.21,3.23c-.47.69-1.02,1.24-1.73,1.56-.5.23-.95.28-1.25.31-5.23.4-10.26-1.12-10.26-1.12-4.28-1.29-7.35-2.73-9.53-3.76-3.68-1.75-5.97-3.17-7.72-4.41-3.04-2.15-4.05-3.42-4.39-3.88-1.68-2.23-2.33-4.53-2.61-6,.53-1.53,1.06-3.06,1.59-4.58.68-2.33,1.35-4.66,2.02-6.98l.64-2.6c.34-1.02.69-2.05,1.03-3.07.11-.38.23-.78.38-1.19.23-.64.43-1.1.47-1.19,1.08-2.54,2.08-7.86,2.08-7.86.31-1.64.56-2.75,1.04-4.86,0,0,1.03-4.5,3.12-9.94.4-1.05.94-2.38,2.26-3.38.92-.7,1.86-.99,2.58-1.13,5.09-.98,11.18.59,11.19.59,2.52.65,5.97,1.76,9.85,3.73,1.05.49,2.1.99,3.15,1.48,2.07.97,4.07,1.82,5.96,3.08,2.45.89,6.61,2.75,10.19,6.35,0,0,3.15,3.16,4.44,7.54.12.41.09.8.09.8-.04.5-.26.88-.42,1.1Z"/>
        <g class="cls-1">
          <path class="cls-14" d="M137.51,27.74c-.51,1.53-1.02,3.06-1.53,4.59-3.84,6.21-7.67,12.43-11.51,18.64-2,3.14-4,6.27-6,9.41-.96,1.18-1.93,2.36-2.89,3.54l-2.21,3.23c-.47.69-1.02,1.24-1.73,1.56-.5.23-.95.28-1.25.31-5.23.4-10.26-1.12-10.26-1.12-4.28-1.29-7.35-2.73-9.53-3.76-3.68-1.75-5.97-3.17-7.72-4.41-3.04-2.15-4.05-3.42-4.39-3.88-1.68-2.23-2.33-4.53-2.61-6,.53-1.53,1.06-3.06,1.59-4.58.68-2.33,1.35-4.66,2.02-6.98l.64-2.6c.34-1.02.69-2.05,1.03-3.07.11-.38.23-.78.38-1.19.23-.64.43-1.1.47-1.19,1.08-2.54,2.08-7.86,2.08-7.86.31-1.64.56-2.75,1.04-4.86,0,0,1.03-4.5,3.12-9.94.4-1.05.94-2.38,2.26-3.38.92-.7,1.86-.99,2.58-1.13,5.09-.98,11.18.59,11.19.59,2.52.65,5.97,1.76,9.85,3.73,1.05.49,2.1.99,3.15,1.48,2.07.97,4.07,1.82,5.96,3.08,2.45.89,6.61,2.75,10.19,6.35,0,0,3.15,3.16,4.44,7.54.12.41.09.8.09.8-.04.5-.26.88-.42,1.1Z"/>
        </g>
        <g class="cls-4">
          <path class="cls-10" d="M137.51,27.74c-.51,1.53-1.02,3.06-1.53,4.59-3.84,6.21-7.67,12.43-11.51,18.64-2,3.14-4,6.27-6,9.41-.96,1.18-1.93,2.36-2.89,3.54l-2.21,3.23c-.47.69-1.02,1.24-1.73,1.56-.5.23-.95.28-1.25.31-5.23.4-10.26-1.12-10.26-1.12-4.28-1.29-7.35-2.73-9.53-3.76-3.68-1.75-5.97-3.17-7.72-4.41-3.04-2.15-4.05-3.42-4.39-3.88-1.68-2.23-2.33-4.53-2.61-6,.53-1.53,1.06-3.06,1.59-4.58.68-2.33,1.35-4.66,2.02-6.98l.64-2.6c.34-1.02.69-2.05,1.03-3.07.11-.38.23-.78.38-1.19.23-.64.43-1.1.47-1.19,1.08-2.54,2.08-7.86,2.08-7.86.31-1.64.56-2.75,1.04-4.86,0,0,1.03-4.5,3.12-9.94.4-1.05.94-2.38,2.26-3.38.92-.7,1.86-.99,2.58-1.13,5.09-.98,11.18.59,11.19.59,2.52.65,5.97,1.76,9.85,3.73,1.05.49,2.1.99,3.15,1.48,2.07.97,4.07,1.82,5.96,3.08,2.45.89,6.61,2.75,10.19,6.35,0,0,3.15,3.16,4.44,7.54.12.41.09.8.09.8-.04.5-.26.88-.42,1.1Z"/>
        </g>
      </g>
      <path id="border_primary" class="cls-13" d="M138.89,32.86s.04-.08.07-.11c.59-1.01,1.15-2.05,1.6-3.17,1.48-3.63-.46-7.54-3.11-10.57-.4-.45-.81-.89-1.23-1.3-2-1.96-4.27-3.81-6.7-5.51-5.15-3.62-11.03-6.59-16.56-8.62-4.96-1.83-10.87-3.58-16.37-3.58-1.65,0-3.26.16-4.8.52-2.74.57-4.8,2.33-5.81,4.95-1.25,3.29-2.14,6.63-3.12,10.22-3.75-.49-7.3.45-10.13,2.39-3.72,2.55-6.19,6.81-6.25,11.81-.01.99.09,1.94.32,2.85.34,1.38.94,2.68,1.81,3.93-.55,1.73-1.24,3.37-2.03,4.98-.48.98-1,1.96-1.54,2.93-20.08.19-39.41,10.69-51.36,26.73C4.7,83.38,0,98,0,112.91c0,4.24.38,8.5,1.15,12.73,3.9,21.43,18.03,39.7,37.62,49.24,5.76,2.81,11.86,4.7,18.3,5.78,33.4,5.59,65.76-15.31,75.57-47.26,6.34-20.64,2.74-43.12-9.6-60.68.72-2.07,2.99-7.15,3.77-7.15,3.14.02,6.01-1.27,8.22-3.32,1.88-1.74,3.3-4.03,4.01-6.53,1.14-3.99.88-8.14-1.11-11.77-.9-1.63-2.12-2.84-3.39-4.3l2.2-3.44c.72-1.13,1.46-2.23,2.14-3.37ZM123.41,12.02c.02.06.02.13-.02.21.29.16.6.33.92.51,4.92,2.79,12.13,8.07,13.42,13.1.76,2.95-3.47,3.7-6.75,3.48-4.91-.33-9.66-1.49-14.1-3.29l-2.66-1.07-3.8-1.64c-2.36-1.34-5.07-2.2-6.98-3.87-1.86-1.11-4.01-2.42-6.06-3.93-3.25-2.39-6.23-5.26-7.29-8.55-.46-1.41.1-2.54,1.49-3.13,5.63-2.35,16.59,1.1,22.4,3.53l3.15,1.48c2.07.97,4.07,1.82,5.96,3.08.03-.01.06-.02.08-.02.11-.02.19.02.22.09ZM83.7,24.24l1.66-5.97.45-1.54,2.2-7.52c1.01,2.08,2.37,3.78,4.07,5.41.47.45.95.88,1.43,1.31,3.35,2.93,7.04,5.31,11.01,7.47,4.3,2.34,8.49,4.34,13.12,5.85,5.81,1.95,11.99,3.62,18.21,2.52l-.63.98-9.8,15.33c-6.24-.46-13.5-2.08-18.98-4.56-6.26-2.82-12.2-6.4-17.55-10.78-2.07-1.69-4.05-3.5-5.93-5.44-.03-.03-.06-.06-.09-.09l.82-2.97ZM77.36,45.27s.06.04.09.07c3.06,2.25,5.71,4.32,8.83,6.16,4.71,2.79,9.32,5.25,14.35,7.36,4.85,2.03,9.71,3.71,14.83,5.06l-.27.39-1.94,2.84c-.72,1.06-1.61,1.78-2.98,1.87-4.35.3-9.57-.98-14.2-2.73-1.96-.74-3.82-1.57-5.45-2.39-2.63-1.33-5.2-2.74-7.52-4.58-2.84-2.26-7.22-6.01-6.98-9.45l.84-3.13.39-1.47ZM117.17,61.12c-4.68-1-9.35-2.58-13.67-4.44-2.32-.82-4.56-1.81-6.8-2.99l-7.45-3.93c-1.96-1.18-3.87-2.37-5.71-3.65-.23-.16-.46-.33-.69-.48-1.37-.97-2.7-1.98-3.99-3.05-.02-.02-.04-.03-.06-.05-.14-.12-.29-.24-.43-.37-.05-.04-.1-.08-.15-.12.06.03.11.05.16.07.01,0,.02.01.03.02l1.15-3.75.64-2.6c.25-.63.49-1.26.74-1.88.08-.37.17-.75.28-1.15.11-.4.24-.81.39-1.23.14-.39.29-.77.43-1.12.83.82,1.68,1.6,2.56,2.35,1.21,1.06,2.46,2.07,3.77,3.09.22.17.44.35.67.52.29.23.58.45.88.66,1.11.84,2.22,1.62,3.31,2.35.36.24.71.47,1.07.7,3.8,2.45,7.77,4.55,11.91,6.32.16.07.32.14.47.2l4.01,1.48c4.26,1.32,8.57,2.24,12.94,2.62.19.02.39.03.58.05-1.99,3.11-3.99,6.22-5.98,9.33-.2.38-.41.76-.61,1.14.04.01.09.02.13.04.03,0,.07.02.1.02.01,0,.03,0,.04.01l-.14-.03c-.2-.04-.4-.08-.59-.13ZM70.73,25.48c1.95-4.54,6.41-7.31,11.31-6.71l-1.4,5c-.53-.77-1.03-1.26-1.76-.97-1.56.61-.26,3.35.94,5.13.05.07.1.14.15.21-.49,1.53-.98,3.07-1.47,4.61-.8,2.5-1.59,4.99-2.39,7.49-.07-.06-.14-.14-.2-.2-1.81-1.96-3.88-3.87-5.26-6.28-.19-.33-.35-.66-.47-1.01-.88-2.33-.46-4.96.54-7.27ZM132.36,115.16c-.51,16.3-7.1,31.76-18.45,43.39-10.33,10.6-23.8,17.47-38.52,19.27-14.01,1.7-28.31-1.49-40.31-8.71-7.3-4.4-13.51-10.06-18.62-16.78C-2.37,127.6-.75,92.26,19.95,69c9.81-11.03,23.01-18.37,37.52-20.58,3.11-.48,5.98-.57,9.06-.75.27-.02.48-.12.66-.27.39-.33.6-.89.84-1.34,1.13-2.22,2.32-4.25,3.05-6.68l1.82,1.96,2.11,1.96-1.15,3.77c-.36,1.2-.86,2.31-.59,3.58.69,3.15,2.37,5.73,4.66,7.94,2.64,2.55,5.52,4.59,8.76,6.37,1.22.66,2.42,1.31,3.64,1.91,2.37,1.18,4.79,2.21,7.38,2.92l2.23.61c3.44.94,6.9,1.43,10.41,1.19,2.28-.16,4.16-1.13,5.39-3.05l2.63-4.12,2.13.38,2.33.33-2.99,6.49c-.57,1.25-.13,2.3.66,3.43,8.22,11.69,12.32,25.66,11.87,40.09ZM135.83,55.09c-1.17,3.55-3.91,6.61-7.71,7.17-2.56.37-5.21.09-7.64-.42.15-.31.3-.63.45-.94l4.67-7.29,1.45-2.62c1.98.06,5.17-.91,4.94-2.48-.06-.45-.41-.91-.99-.94-.68-.04-1.22.23-1.84.37l3.5-5.48c3.48,3.23,4.68,8.02,3.16,12.64Z"/>
      <path class="cls-5" d="M124.51,98.78c-1.25-4.95-7.89-9.4-12.35-12.04-2.82-1.67-5.69-2.99-8.64-4.19-4.4-1.79-8.9-3.35-13.46-4.66-.03-.03-.06-.04-.19-.09-.83-.31-1.33-.41-1.33-.41-.56-.11-1.34-.29-2.32-.5-2.66-.61-5.32-1.21-7.98-1.82-7.61-1.51-15.32-2.7-23.07-3.34l-.59-.03h-.29s-11.57-.31-11.57-.31c-3.21.07-6.42.15-9.63.22h-.04c-.34.04-.67.08-1.01.12-3.47.38-6.86.72-9.2,3.56-12.1,14.65-16.33,34.39-11.39,52.92,2.11,7.93,5.89,15.16,10.89,21.53l4.59,5.03c17.28,17.12,43.14,22.12,65.49,11.48,13.1-6.24,23.61-17.08,29.21-30.48,4.9-11.73,6.04-24.59,2.89-36.99ZM26.27,76.08c.05-.06.1-.11.16-.17.04-.03.08-.06.12-.1.08-.06.18-.12.28-.18.06-.03.12-.06.19-.1.15-.07.31-.14.49-.2.08-.03.17-.06.26-.08.35-.07.72-.14,1.12-.2.12-.02.23-.03.35-.04.09-.01.18-.02.27-.03.29-.03.57-.05.83-.06,2.86-.27,5.86-.49,8.98-.63,3.7-.16,7.24-.2,10.6-.16h.05c.16,0,.32,0,.47,0,.57.03,1.13.06,1.7.1,1.1.07,2.2.15,3.3.25.13,0,.26.02.39.03,1.49.13,2.99.28,4.48.44.25.03.5.06.76.09,2.1.24,4.2.52,6.29.84.57.08,1.13.17,1.7.27.56.09,1.13.18,1.69.28,1.13.19,2.26.39,3.39.61.56.1,1.12.21,1.68.33.56.11,1.12.22,1.67.34,1.48.35,2.95.71,4.43,1.06,2.5.6,5,1.2,7.49,1.8,5.38,1.44,10.72,3.37,15.8,5.76l3.17,1.49c4.07,1.92,10.46,6.35,12.86,10.25.22.35.62,1.13.27,1.46l-1.92,1.84c-2.77,2.09-5.93,3.32-9.36,3.9l-3.38.57c-4.37.44-8.7.35-13.24-.23-17.64-2.27-35.02-9.77-50.61-18.14l-4.45-2.37c-.1-.04-.19-.09-.28-.14,0,0-.02,0-.03-.02l-.1-.06s0,0,0-.01c-.04-.03-.08-.06-.11-.09-.03-.02-.05-.05-.08-.08l-9.71-6.33c-.06-.03-.11-.07-.16-.1l-.07-.04h0s-.04-.04-.07-.07c0,0-.02.01-.02.02l-.03-.04-.53-.6-1.18-1.34s.06-.08.1-.12ZM108.9,150.57c-7.46,8.24-16.98,13.99-27.76,16.79-22.89,5.96-46.78-4.23-59.55-23.44-5.95-8.96-9.2-19.41-9.37-30.32-.2-12.89,4.09-25.22,11.91-35.5.63.53,1.1,1.22,1.7,1.73.24.21.51.39.82.51h0s.71.52.71.52c2.91,2.12,5.96,4.17,9.16,6.14.06.04.12.08.18.11.03.02.05.03.08.05.21.14.43.27.65.4.17.1.34.2.51.31.14.08.27.16.41.25l7.07,3.86c7.83,4.27,16,7.63,24.45,10.64,11.07,3.94,24.77,7.2,36.43,6.12,5.87-.54,11.46-2.04,16.16-6.16,3.41,17.31-2.07,35.32-13.56,48.01Z"/>
      <g id="fill">
        <path class="cls-12" d="M106.3,108.72c-1.64,11.21-6.8,21.47-14.77,29.51l-2.65,2.67-1.23,1.04c-5.64,4.78-11.83,8.37-18.95,10.71-15.81,5.22-32.3,1.83-45.61-7.51-.2-.14-.16-.7-.83-.48.06-.55-.39-.71-.66-.74-5.95-8.96-9.2-19.41-9.37-30.32-.2-12.89,4.09-25.22,11.91-35.5.89.74,1.44,1.8,2.52,2.23.24.17.47.35.71.52,2.91,2.12,5.96,4.17,9.16,6.14.06.04.12.08.18.11.24.15.48.3.73.45.17.1.34.2.51.31.14.08.27.16.41.25l7.07,3.86c7.83,4.27,16,7.63,24.45,10.64,11.07,3.94,24.77,7.2,36.43,6.12Z"/>
        <path class="cls-15" d="M108.9,150.57c-7.46,8.24-16.98,13.99-27.76,16.79-22.89,5.96-46.78-4.23-59.55-23.44.27.02.72.18.66.74.67-.21.63.34.83.48,13.31,9.35,29.8,12.73,45.61,7.51,7.12-2.34,13.31-5.93,18.95-10.71l1.23-1.04,2.65-2.67c7.96-8.04,13.13-18.3,14.77-29.51,5.87-.54,11.46-2.04,16.16-6.16,3.41,17.31-2.07,35.32-13.56,48.01Z"/>
        <path class="cls-15" d="M121.51,99.54l-1.92,1.84c-2.77,2.09-5.93,3.32-9.36,3.9l-3.38.57c.5-5.21.24-10.35-.86-15.46l-.78-4.05,3.17,1.49c4.07,1.92,10.46,6.35,12.86,10.25.22.35.62,1.13.27,1.46Z"/>
        <path class="cls-11" d="M106.84,105.85c-4.37.44-8.7.35-13.24-.23-17.64-2.27-35.02-9.77-50.61-18.14l-4.45-2.37c-.13-.08-.26-.16-.39-.25-.93-.58-1.86-1.17-2.8-1.77-2.55-1.63-5.03-3.27-7.43-4.91l-.03-.04-1.71-1.94c.58-.9,2.84-1.39,4.06-1.16.82-.09,2.28-.25,4.11-.41,8.06-.65,15.58-.47,15.58-.47.07-.04.15-.09.22-.14.08,0,.18,0,.16.11,9.11.49,18.22,1.71,27.16,3.57l3.35.81c2.25.52,4.5,1.04,6.75,1.55l1.83.49c5.38,1.44,10.72,3.37,15.8,5.76l.78,4.05c1.1,5.11,1.36,10.25.86,15.46Z"/>
      </g>
      <g>
        <path class="cls-2" d="M120.49,75.07c-.79-1.13-1.24-2.17-.66-3.43l2.99-6.49-2.33-.33-2.13-.38-2.63,4.12c-1.23,1.92-3.11,2.89-5.39,3.05-3.5.24-6.97-.24-10.41-1.19l-2.23-.61c-2.59-.72-5.01-1.74-7.38-2.92-1.22-.61-2.42-1.25-3.64-1.91-3.25-1.78-6.12-3.82-8.76-6.37-2.29-2.21-3.97-4.8-4.66-7.94-.28-1.27.23-2.39.59-3.58l1.15-3.77-2.11-1.96-1.82-1.96c-.72,2.42-1.92,4.46-3.05,6.68-.23.45-.45,1.02-.84,1.34-.18.15-.39.25-.66.27-3.08.18-5.94.27-9.06.75-14.5,2.21-27.71,9.55-37.52,20.58C-.75,92.26-2.37,127.6,16.45,152.32c5.11,6.73,11.32,12.39,18.62,16.78,12,7.22,26.31,10.42,40.31,8.71,14.73-1.8,28.19-8.67,38.52-19.27,11.35-11.63,17.93-27.08,18.45-43.39.45-14.42-3.64-28.4-11.87-40.09ZM121.61,135.77c-5.59,13.4-16.11,24.24-29.21,30.48-22.35,10.64-48.2,5.64-65.49-11.48l-4.59-5.03c-5-6.37-8.78-13.6-10.89-21.53-4.93-18.54-.71-38.27,11.39-52.92,2.35-2.84,5.73-3.17,9.2-3.56,5.01-.36,8.72-.38,11.21-.32.41,0,.76.02,5.78.15.43.01,4.82.12,5.25.14.1,0,.2,0,.29,0l.59.03c7.75.64,15.46,1.82,23.07,3.34,2.66.61,5.32,1.21,7.98,1.82.98.21,1.76.39,2.32.5,0,0,.5.1,1.33.41.12.05.16.06.19.09,4.56,1.31,9.06,2.87,13.46,4.66,2.95,1.21,5.83,2.52,8.64,4.19,4.46,2.64,11.09,7.1,12.35,12.04,3.15,12.4,2,25.26-2.89,36.99Z"/>
        <g>
          <path class="cls-3" d="M135.83,55.09c-1.17,3.55-3.91,6.61-7.71,7.17-2.56.37-5.21.09-7.64-.42-1.1-.24-2.21-.47-3.31-.71-4.68-1-9.35-2.58-13.67-4.44-2.32-.82-4.56-1.81-6.8-2.99l-7.45-3.93c-1.82-1.06-3.74-2.27-5.71-3.65-2.82-1.98-5.29-3.97-7.43-5.88-.07-.06-.14-.14-.2-.2-1.81-1.96-3.88-3.87-5.26-6.28-1.46-2.56-1.07-5.63.07-8.28,1.95-4.54,6.41-7.31,11.31-6.71l-1.4,5c-.53-.77-1.03-1.26-1.76-.97-1.56.61-.26,3.35.94,5.13.05.07.1.14.15.21,2.47,2.62,5.47,5.45,9.07,8.22,6.39,4.93,12.6,8.14,17.64,10.24l4.01,1.48c4.26,1.32,8.57,2.24,12.94,2.62,1.14.1,2.27.19,3.41.29,1.98.06,5.17-.91,4.94-2.48-.06-.45-.41-.91-.99-.94-.68-.04-1.22.23-1.84.37l3.5-5.48c3.48,3.23,4.68,8.02,3.16,12.64Z"/>
          <path class="cls-8" d="M82.86,34.56c1.74.8,3.04,2.16,4.54,3.37l5.13,4.11c.54.43.82,1.14.54,1.68-1.18,2.25-7-2.15-9.41-4.09-.78-.62-1.37-1.24-1.96-2.08-.48-.67-1.11-1.5-.78-2.37.28-.73,1.32-.9,1.95-.62Z"/>
        </g>
      </g>
      <g id="reflejo" class="cls-9">
        <path class="cls-7" d="M21.78,120.34c-3.19.51-5.96-1.53-6.21-4.57-.3-3.76,2.2-6.61,5.36-6.6,1.71,0,3.22.76,4.27,2.22,1.2,1.66,1.44,3.54.63,5.64-.56,1.43-2.03,2.99-4.04,3.31Z"/>
        <path class="cls-7" d="M60.24,68.48c-1.9,1.1-3.94,2.14-5.96,3.21-1.29.68-2.56,1.37-3.77,2.11-.2.11-.4.23-.59.35-.01,0-.02.01-.04.02-4.6,2.76-8.5,6.49-11.6,10.78,0,0-.01.01-.02.02-.51.72-1.01,1.45-1.48,2.19-1.68,2.66-3.08,5.49-4.17,8.41-1.25,2.83-2.99,6.29-5.66,7.78-3.46,1.96-7.26-.57-7.58-4.38-.39-3.2.62-7,2.02-10.57l.03-.08c1.22-2.95,2.69-5.79,4.4-8.49.49-.78,1-1.54,1.53-2.29.6-.86,1.23-1.7,1.88-2.53,0,0,0-.01.02-.02.88-1.13,1.81-2.21,2.78-3.27,3.97-4.32,8.63-8.02,13.77-10.88,4.61-2.34,10.81-5.23,15.62-2.08,4.09,3.13,2.9,7.34-1.19,9.7Z"/>
      </g>
      <g>
        <polygon class="cls-7" points="99.71 91.86 99.71 94.28 97.12 94.28 97.12 97.14 94.39 97.14 94.39 94.28 91.8 94.28 91.8 91.86 94.39 91.86 94.39 89.01 97.12 89.01 97.12 91.86 99.71 91.86"/>
        <polygon class="cls-7" points="94.33 74.44 94.33 78.14 90.36 78.14 90.36 82.51 86.19 82.51 86.19 78.14 82.22 78.14 82.22 74.44 86.19 74.44 86.19 70.07 90.36 70.07 90.36 74.44 94.33 74.44"/>
        <polygon class="cls-7" points="82.64 91.28 82.64 94.86 78.81 94.86 78.81 99.08 74.78 99.08 74.78 94.86 70.94 94.86 70.94 91.28 74.78 91.28 74.78 87.07 78.81 87.07 78.81 91.28 82.64 91.28"/>
        <polygon class="cls-7" points="69.84 76.62 69.84 79.04 67.25 79.04 67.25 81.9 64.52 81.9 64.52 79.04 61.93 79.04 61.93 76.62 64.52 76.62 64.52 73.77 67.25 73.77 67.25 76.62 69.84 76.62"/>
      </g>
    </g>
  </g>
</svg>