<?xml version="1.0" encoding="UTF-8"?>
<svg id="Layer_2" data-name="Layer 2" xmlns="http://www.w3.org/2000/svg" viewBox="0 0 268.12 174.02">
  <defs>
    <style>
      .cls-1 {
        fill: #ddb698;
      }

      .cls-2 {
        stroke-width: 1.5px;
      }

      .cls-2, .cls-3 {
        fill: #5c3f37;
        stroke: #562717;
        stroke-miterlimit: 10;
      }

      .cls-3 {
        stroke-width: 2px;
      }
    </style>
  </defs>
  <g id="Layer_1-2" data-name="Layer 1">
    <g id="patch">
      <path class="cls-2" d="M166.57,127.47c35.93-.22,62.6-3.1,90.89-20.04,1.34-.71,2.73-1.36,4.23-1.62,4.78-.97,7.65,3.67,4.09,7.45-11.13,10.57-31.87,16.16-46.65,19.22-21.92,4.38-44.06,5.52-66.5,5.06-22.59.15-45.38-2.07-65.48-11.71C50.3,107.19,22.33,68.64,6.44,31.2c-1.76-4.45-3.25-8.94-4.48-13.5C.96,13.97.1,8.65,1.43,4.39,3.43-.87,8.25-.3,9.47,5.29c.62,2.72,1.09,6,1.68,8.82.66,3.78,2.33,7.09,3.88,10.66,2.18,4.78,3.63,7.83,6.44,13.17,6.43,12.16,13.31,23.56,21.59,34.51,7.04,9.42,14.77,18.45,24.05,25.73,12.97,9.51,27.49,17.93,42.77,23.24,7.57,2.29,14.99,2.92,23.45,3.83,10.91,1.24,22.65,2.22,33.06,2.21h.17Z"/>
      <path class="cls-3" d="M67.69,140.97c-15.83-40.83,28.44-50.31,59.35-43.8,12.37,2.64,26.04,7.34,33.85,17.42,11.35,15.27,1.74,34.72-11.19,45.76-7.85,6.93-17.71,11.82-28.26,12.53-21.8,1.67-45.05-11.35-53.67-31.72l-.08-.18Z"/>
      <g>
        <path class="cls-1" d="M134.52,118.14c.48.79-8.04,6.53-18.15,14.01-5.05,3.75-9.5,7.28-12.72,9.87-3.23,2.58-5.27,4.16-5.6,3.84-.3-.29,1.2-2.43,4.1-5.48,2.89-3.05,7.21-6.93,12.35-10.75,5.14-3.81,10.05-6.86,13.72-8.86,3.67-2.01,6.08-3,6.3-2.63Z"/>
        <path class="cls-1" d="M130.11,150.64c-.73.49-6.94-7.54-14.95-17.14-7.98-9.62-14.58-17.38-13.93-18,.6-.58,8.26,6.26,16.34,16,8.11,9.72,13.25,18.68,12.53,19.14Z"/>
      </g>
    </g>
  </g>
</svg>